<?xml version="1.0" encoding="UTF-8"?>
<svg id="Layer_2" data-name="Layer 2" xmlns="http://www.w3.org/2000/svg" viewBox="0 0 576.75 174.55">
  <defs>
    <style>
      .cls-1 {
        fill: #fff;
      }
    </style>
  </defs>
  <g id="Layer_1-2" data-name="Layer 1">
    <g>
      <path class="cls-1" d="M3.06,140.37c10.25-20.75,22.46-26.12,22.46-61.76,0-28.32-13.18-50.78-20.02-59.32C-1.57,10.5.13,0,11.12,0h55.66c51.27,0,86.18,31.98,86.18,85.44s-35.89,85.44-74.21,85.44H12.83c-13.92,0-15.38-19.04-9.77-30.52ZM59.21,156.24c11.96,0,25.63-21,32.96-70.31,5.61-38.33-1.46-71.28-16.11-71.28-10.01,0-16.84,11.72-21.24,70.8-3.42,45.65-5.86,70.8,4.39,70.8Z"/>
      <path class="cls-1" d="M223.26,45.16c36.86,0,61.28,25.88,61.28,64.69s-24.41,64.69-61.28,64.69-61.52-25.88-61.52-64.69,24.66-64.69,61.52-64.69ZM206.42,159.41c10.25-.49,19.04-13.67,30.76-43.94,11.72-30.03,14.16-55.42,3.91-54.93-8.54.49-20.51,13.92-31.49,43.21-11.47,31-13.92,56.15-3.17,55.66Z"/>
      <path class="cls-1" d="M293.08,163.32v-20.02c0-10.5,7.57-16.11,15.14-15.87,20.26.98,23.44,25.14,42.23,25.14,16.11,0,30.03-4.39,28.56-12.45-1.95-10.01-23.19-14.89-38.08-18.07-23.92-4.88-44.92-21.97-44.92-44.92,0-18.8,15.14-31.98,45.65-31.98,25.39,0,46.14,5.37,54.44,11.23v10.25c0,10.5-7.57,16.11-15.14,15.87-20.26-.98-12.69-25.14-39.3-25.14-17.33,0-24.66,9.28-21.73,16.6,3.66,8.79,23.44,12.94,40.52,17.58,28.81,7.57,41.01,18.8,41.01,41.01,0,14.4-4.39,41.99-46.63,41.99-25.39,0-52-5.37-61.76-11.23Z"/>
      <path class="cls-1" d="M410.01,110.34c0-34.18,23.44-65.18,59.81-65.18,27.34,0,49.31,10.25,49.31,30.76,0,23.92-24.66,25.39-51.27,36.38l-17.33,7.32c-.49,22.7,8.06,32.96,20.99,32.96,18.8,0,21.97-24.17,42.23-25.14,7.57-.24,15.14,5.37,15.14,15.87v20.02c-9.28,5.86-41.99,11.23-66.16,11.23-36.86,0-52.73-28.81-52.73-64.21ZM461.04,103.75c14.16-5.86,19.29-12.45,21.24-25.88,1.71-10.74-1.46-21.73-8.79-21.73s-12.45,7.32-19.04,35.89c-1.22,5.61-2.2,10.74-2.93,15.62l9.52-3.91Z"/>
      <path class="cls-1" d="M557.22,135.49c11.72,0,19.53,7.81,19.53,19.53s-7.81,19.53-19.53,19.53-19.53-8.06-19.53-19.53,7.81-19.53,19.53-19.53Z"/>
    </g>
  </g>
</svg>